# xmcd
#
# Track frame offsets:
#	150
#	19436
#	33189
#	49673
#	65132
#	78649
#	97469
#	114476
#	130711
#	148825
#	165869
#	181693
#	199637
#	223023
#	240809
#	256448
#	273940
#	290250
#	304937
#	320773
#
# Disc length: 4530 seconds
#
# Revision: 1
# Processed by: cddbd v1.5.2PL0 Copyright (c) Steve Scherf et al.
# Submitted via: dBpowerAMP V4.0
#
DISCID=2411b014
DTITLE=Various Artist - Nu Urban Traxx Volume 217 Can
DYEAR=2015
DGENRE=Urban
TTITLE0=Chris Brown X Tyga - B and M
TTITLE1=Drake - Energy
TTITLE2=Janelle Monae ft. Jidenna - Yoga
TTITLE3=Rae Sremmurd - This Could Be Us
TTITLE4=Drake - 10 Bands
TTITLE5=Elijah Blake - I Just Wanna...
TTITLE6=Curtis Fields - Fool For You
TTITLE7=Charles Hamilton ft. Rita Ora - New York Raining
TTITLE8=Mariah Carey - Infinity
TTITLE9=Dej Loaf ft. Lil' Wayne - Me U and Hennessy
TTITLE10=Game ft. Dej Loaf - Ryda
TTITLE11=Lil' Durk ft. Jeremih - Like Me
TTITLE12=Mike Will Made-It ft. Swae Lee - Drinks On Us
TTITLE13=Charlie Wilson - My Favorite Part Of You
TTITLE14=Young Dro - We In Da City
TTITLE15=Action Bronson ft. Chance The Rapper - Baby Blue
TTITLE16=Snoh Aalegra - Emotional
TTITLE17=Tamia - Sandwich And A Soda
TTITLE18=Vivian Green - Get Right Back To My Baby
TTITLE19=Treasure Davis ft. Kid Ink - Simple
EXTD=
EXTT0=
EXTT1=
EXTT2=
EXTT3=
EXTT4=
EXTT5=
EXTT6=
EXTT7=
EXTT8=
EXTT9=
EXTT10=
EXTT11=
EXTT12=
EXTT13=
EXTT14=
EXTT15=
EXTT16=
EXTT17=
EXTT18=
EXTT19=
PLAYORDER=
